<?xml version="1.0" ?><svg data-name="Layer 1" id="Layer_1" viewBox="0 0 32 32" xmlns="http://www.w3.org/2000/svg"><path style="fill:#26cf6c;" d="M28.8236,15.4306c-5.057,0-8.11682-.003-9.90295-.72851.73913-1.77582,2.87683-3.93384,6.45276-7.50977l.02636-.02734a.59938.59938,0,1,0-.84765-.84766c-3.592,3.592-5.75647,5.73847-7.53711,6.47913-.72547-1.78607-.72852-4.84595-.72852-9.903a.59961.59961,0,0,0-1.19922,0c0,5.057-.003,8.11689-.72851,9.903-1.7807-.74073-3.94507-2.88709-7.53711-6.47913A.59939.59939,0,1,0,5.974,7.165l.02637.02734c3.57593,3.57593,5.71368,5.734,6.45276,7.50977-1.786.72546-4.84595.72851-9.903.72851a.59961.59961,0,1,0,0,1.19922c5.057,0,8.11689.00305,9.903.72852C11.71239,19.139,9.566,21.3034,5.974,24.89545a.59938.59938,0,0,0,.84766.84765l.02734-.02636c3.57593-3.57593,5.734-5.71363,7.50977-6.45276.72546,1.786.72851,4.84594.72851,9.903a.59961.59961,0,1,0,1.19922,0c0-5.057.003-8.11694.72852-9.90295,1.77575.73907,3.93383,2.87683,7.50976,6.45276l.02735.02636a.59938.59938,0,1,0,.84765-.84765c-3.592-3.59205-5.7384-5.75641-6.47912-7.53711,1.78607-.72547,4.84594-.72852,9.903-.72852a.59961.59961,0,1,0,0-1.19922Z"/></svg>